<svg width="17" height="17" viewBox="0 0 17 17" fill="none" xmlns="http://www.w3.org/2000/svg">
<g clip-path="url(#clip0)">
<path d="M11.7781 2.37228H3.2937C2.32452 2.37228 1.53589 3.16092 1.53589 4.1301V12.6145C1.53589 13.5836 2.32452 14.3723 3.2937 14.3723H11.7781C12.7473 14.3723 13.5359 13.5836 13.5359 12.6145V4.1301C13.5359 3.16092 12.7473 2.37228 11.7781 2.37228ZM7.55933 11.5129C5.81461 11.5129 4.39526 10.0936 4.39526 8.34885C4.39526 6.60413 5.81461 5.18478 7.55933 5.18478C9.30405 5.18478 10.7234 6.60413 10.7234 8.34885C10.7234 10.0936 9.30405 11.5129 7.55933 11.5129ZM11.075 5.88791C10.4934 5.88791 10.0203 5.41476 10.0203 4.83322C10.0203 4.25168 10.4934 3.77853 11.075 3.77853C11.6565 3.77853 12.1296 4.25168 12.1296 4.83322C12.1296 5.41476 11.6565 5.88791 11.075 5.88791Z" fill="#0096FF"/>
<path d="M11.075 4.48166C10.881 4.48166 10.7234 4.63922 10.7234 4.83322C10.7234 5.02722 10.881 5.18478 11.075 5.18478C11.269 5.18478 11.4265 5.02722 11.4265 4.83322C11.4265 4.63922 11.269 4.48166 11.075 4.48166Z" fill="#0096FF"/>
<path d="M7.55933 5.88791C6.20251 5.88791 5.09839 6.99203 5.09839 8.34885C5.09839 9.70566 6.20251 10.8098 7.55933 10.8098C8.91614 10.8098 10.0203 9.70566 10.0203 8.34885C10.0203 6.99203 8.91614 5.88791 7.55933 5.88791Z" fill="#0096FF"/>
</g>
<defs>
<clipPath id="clip0">
<rect width="12" height="12" fill="white" transform="translate(1.53589 2.37228)"/>
</clipPath>
</defs>
</svg>
