<svg width="12" height="12" viewBox="0 0 12 12" fill="none" xmlns="http://www.w3.org/2000/svg">
<path fill-rule="evenodd" clip-rule="evenodd" d="M10.9698 6.67153C12.3447 5.21399 12.3447 2.85073 10.9698 1.3932C9.59831 -0.0606925 7.37671 -0.0643256 6.00098 1.3823C4.62525 -0.0643256 2.40365 -0.0606925 1.03216 1.3932C-0.342753 2.85073 -0.342753 5.21399 1.03216 6.67153L5.61472 11.5305C5.82774 11.7564 6.17316 11.7564 6.3862 11.5305L10.9698 6.67153ZM10.1983 5.85374L6.0005 10.3038L1.80362 5.85378C0.854715 4.84786 0.854715 3.21687 1.80358 2.21099C2.75244 1.20511 4.29098 1.20511 5.23984 2.21099C5.35391 2.33192 5.45642 2.46535 5.54644 2.60916C5.76222 2.95386 6.23969 2.95386 6.45547 2.60916C6.54566 2.46509 6.64769 2.33224 6.76207 2.21099C7.71093 1.20511 9.24947 1.20511 10.1983 2.21099C11.1472 3.21687 11.1472 4.84786 10.1983 5.85374Z" fill="#2296F9"/>
<mask id="mask0" mask-type="alpha" maskUnits="userSpaceOnUse" x="0" y="0" width="13" height="12">
<path fill-rule="evenodd" clip-rule="evenodd" d="M10.9698 6.67153C12.3447 5.21399 12.3447 2.85073 10.9698 1.3932C9.59831 -0.0606925 7.37671 -0.0643256 6.00098 1.3823C4.62525 -0.0643256 2.40365 -0.0606925 1.03216 1.3932C-0.342753 2.85073 -0.342753 5.21399 1.03216 6.67153L5.61472 11.5305C5.82774 11.7564 6.17316 11.7564 6.3862 11.5305L10.9698 6.67153ZM10.1983 5.85374L6.0005 10.3038L1.80362 5.85378C0.854715 4.84786 0.854715 3.21687 1.80358 2.21099C2.75244 1.20511 4.29098 1.20511 5.23984 2.21099C5.35391 2.33192 5.45642 2.46535 5.54644 2.60916C5.76222 2.95386 6.23969 2.95386 6.45547 2.60916C6.54566 2.46509 6.64769 2.33224 6.76207 2.21099C7.71093 1.20511 9.24947 1.20511 10.1983 2.21099C11.1472 3.21687 11.1472 4.84786 10.1983 5.85374Z" fill="white"/>
</mask>
<g mask="url(#mask0)">
</g>
</svg>
