<svg width="17" height="14" viewBox="0 0 17 14" fill="none" xmlns="http://www.w3.org/2000/svg">
<path d="M16.2808 2.01111C15.6789 2.28235 15.0376 2.46213 14.3689 2.54943C15.0568 2.1275 15.5818 1.46447 15.8286 0.665301C15.1873 1.05813 14.4792 1.33561 13.7245 1.49045C13.1155 0.824303 12.2476 0.411728 11.3007 0.411728C9.46365 0.411728 7.98469 1.94356 7.98469 3.82145C7.98469 4.09165 8.00694 4.35146 8.06157 4.59879C5.30293 4.46058 2.86194 3.1023 1.22214 1.03319C0.935855 1.54345 0.767929 2.1275 0.767929 2.75624C0.767929 3.9368 1.35972 4.98331 2.24183 5.58918C1.70872 5.57879 1.18572 5.41979 0.742639 5.16933C0.742639 5.17973 0.742639 5.19324 0.742639 5.20675C0.742639 6.86328 1.89283 8.23923 3.40112 8.55619C3.13103 8.63206 2.83665 8.66843 2.53115 8.66843C2.31871 8.66843 2.10425 8.65596 1.90294 8.61023C2.33287 9.96019 3.55287 10.9527 5.0035 10.9849C3.87455 11.8921 2.44112 12.4388 0.889321 12.4388C0.617201 12.4388 0.356208 12.4263 0.0952148 12.392C1.56507 13.3658 3.30705 13.9217 5.18559 13.9217C11.2916 13.9217 14.6299 8.72559 14.6299 4.22155C14.6299 4.07086 14.6248 3.92537 14.6178 3.78092C15.2763 3.30079 15.8296 2.70116 16.2808 2.01111Z" fill="#0096FF"/>
</svg>
